#!OML:ASF H:\BabyWalks\Project 1\Capture day 1\Session 1\baby.ASF
:FULLY-SPECIFIED
:DEGREES
500
root 14.4061 18.0277 8.94082 -168.636 31.9082 -176.554
lowerback 19.9314 1.72949 4.60777
upperback 3.9311 3.95128 2.38034
thorax -6.74595 2.06686 -1.07328
lowerneck -4.46488 -3.86907 5.34685
upperneck -0.714379 -5.35669 -4.44171
head 0.26007 -2.71218 -2.39063
rclavicle 2.74323e-014 2.62396e-014
rhumerus -47.7238 11.6024 -84.6316
rradius 67.6171
rwrist -12.8094
rhand -17.4341 -17.6597
rfingers 7.12502
rthumb 8.81646 -47.4555
lclavicle 2.74323e-014 2.62396e-014
lhumerus -68.8685 -9.02907 78.425
lradius 45.1638
lwrist -1.74282
lhand 15.1039 10.8191
lfingers 7.12502
lthumb 39.9495 36.0604
rfemur 5.13631 8.89952 22.962
rtibia 12.4168
rfoot -8.03457 1.09593
rtoes -17.0022
lfemur -31.0228 -4.51298 -8.89651
ltibia 28.951
lfoot -20.0111 -2.65366
ltoes -9.05377
501
root 14.504 18.003 8.78819 -168.629 32.4581 -176.298
lowerback 19.8312 1.78599 4.1831
upperback 3.99179 3.89537 2.12006
thorax -6.63685 2.04474 -1.09259
lowerneck -4.57718 -3.73414 5.13761
upperneck -0.597729 -5.18017 -3.67266
head 0.350189 -2.61993 -2.10457
rclavicle -1.47101e-014 4.6118e-014
rhumerus -47.9335 12.0733 -85.2786
rradius 68.2753
rwrist -12.7933
rhand -17.595 -17.5328
rfingers 7.12502
rthumb 8.66122 -47.3352
lclavicle -1.47101e-014 4.6118e-014
lhumerus -68.7743 -9.19279 78.3734
lradius 45.4937
lwrist -0.859624
lhand 14.6233 10.9774
lfingers 7.12502
lthumb 39.4969 36.3532
rfemur 4.83438 9.00651 23.0968
rtibia 14.354
rfoot -8.10968 1.72667
rtoes -17.2692
lfemur -30.547 -4.79681 -8.52412
ltibia 28.517
lfoot -20.0648 -1.81801
ltoes -9.47505
502
root 14.6013 17.9708 8.6352 -168.628 33.0138 -176.028
lowerback 19.7335 1.82682 3.76285
upperback 4.05873 3.82419 1.8586
thorax -6.52269 2.01591 -1.11149
lowerneck -4.68889 -3.59737 4.92992
upperneck -0.495564 -5.0009 -2.88016
head 0.433523 -2.52391 -1.81378
rclavicle 7.7526e-014 -2.94201e-014
rhumerus -48.1508 12.5269 -85.9035
rradius 68.8685
rwrist -12.7962
rhand -17.7496 -17.4448
rfingers 7.12502
rthumb 8.51198 -47.2533
lclavicle 7.7526e-014 -2.94201e-014
lhumerus -68.5942 -9.34872 78.3029
lradius 45.766
lwrist -0.171745
lhand 14.1552 11.073
lfingers 7.12502
lthumb 39.0558 36.577
rfemur 4.38488 9.07777 23.2224
rtibia 16.6049
rfoot -8.19213 2.40271
rtoes -17.4567
lfemur -29.9981 -4.96081 -8.20651
ltibia 28.2094
lfoot -20.0082 -1.18917
ltoes -10.0841
503
root 14.6981 17.9316 8.48157 -168.638 33.5823 -175.745
lowerback 19.6422 1.85829 3.35456
upperback 4.13255 3.74706 1.58852
thorax -6.40324 1.98466 -1.14467
lowerneck -4.80607 -3.46407 4.74386
upperneck -0.402766 -4.82684 -2.07271
head 0.511815 -2.42814 -1.52493
rclavicle -4.69132e-014 -2.06736e-014
rhumerus -48.3849 12.9392 -86.5105
rradius 69.4034
rwrist -12.8155
rhand -17.898 -17.3753
rfingers 7.12502
rthumb 8.36882 -47.1895
lclavicle -4.69132e-014 -2.06736e-014
lhumerus -68.326 -9.52686 78.2209
lradius 45.9743
lwrist 0.299341
lhand 13.7119 11.0851
lfingers 7.12502
lthumb 38.6378 36.7079
rfemur 3.83593 9.1069 23.3297
rtibia 19.0688
rfoot -8.19393 3.13518
rtoes -17.5692
lfemur -29.3817 -5.00629 -7.94203
ltibia 28.0341
lfoot -19.7474 -0.836331
ltoes -10.7886
504
root 14.794 17.8867 8.32736 -168.653 34.1559 -175.451
lowerback 19.5582 1.87178 2.96458
upperback 4.21056 3.6542 1.31301
thorax -6.28217 1.94602 -1.19016
lowerneck -4.91913 -3.33107 4.57243
upperneck -0.326081 -4.65248 -1.25907
head 0.581792 -2.32989 -1.23903
rclavicle -3.57812e-015 3.81667e-014
rhumerus -48.6338 13.312 -87.0964
rradius 69.8798
rwrist -12.8444
rhand -18.0322 -17.3074
rfingers 7.12502
rthumb 8.23926 -47.1267
lclavicle -3.57812e-015 3.81667e-014
lhumerus -67.9799 -9.71922 78.1363
lradius 46.1147
lwrist 0.550832
lhand 13.281 11.0126
lfingers 7.12502
lthumb 38.2312 36.7486
rfemur 3.20943 9.08684 23.4148
rtibia 21.6743
rfoot -8.03808 3.92029
rtoes -17.5918
lfemur -28.7328 -4.88634 -7.74358
ltibia 28.0133
lfoot -19.2444 -0.737169
ltoes -11.1316
